# xmcd
#
# Track frame offsets:
#	150
#	19897
#	37932
#	55805
#	74247
#	92272
#	107602
#	124807
#	140490
#	158610
#	172960
#
# Disc length: 2471 seconds
#
# Revision: 0
# Processed by: cddbd v1.5.2PL0 Copyright (c) Steve Scherf et al.
# Submitted via: EasyCDDAExtractor 2010.4.0.0
#
DISCID=8b09a50b
DTITLE=Aura Cristina - Calor
DYEAR=1900
DGENRE=
TTITLE0=La Negra Celina
TTITLE1=Para Que?
TTITLE2=Arco Iris
TTITLE3=Un Besito
TTITLE4=Ahora
TTITLE5=Mi Flauta
TTITLE6=Yerbabuena
TTITLE7=Leona
TTITLE8=Luz De Sol
TTITLE9=Juana La Marranay El Ladron De Pueblo
TTITLE10=Arco Iris (Piano)
EXTD=
EXTT0=
EXTT1=
EXTT2=
EXTT3=
EXTT4=
EXTT5=
EXTT6=
EXTT7=
EXTT8=
EXTT9=
EXTT10=
PLAYORDER=
